/* XPM */
static char * icon_opennum_xpm[] = {
"32 32 213 2",
"  	c None",
". 	c #ABC2D8",
"+ 	c #AAC1D8",
"@ 	c #AAC0D8",
"# 	c #A9C0D7",
"$ 	c #A8C0D7",
"% 	c #A0BAD3",
"& 	c #9FB9D2",
"* 	c #9FB8D2",
"= 	c #9EB8D2",
"- 	c #9EB7D2",
"; 	c #9DB7D1",
"> 	c #95B1CE",
", 	c #94B0CD",
"' 	c #93B0CD",
") 	c #93AFCD",
"! 	c #92AFCC",
"~ 	c #8AA9C8",
"{ 	c #89A9C8",
"] 	c #89A8C8",
"^ 	c #88A8C7",
"/ 	c #87A7C7",
"( 	c #80A1C4",
"_ 	c #7FA1C4",
": 	c #7EA1C3",
"< 	c #7EA0C3",
"[ 	c #7D9FC3",
"} 	c #7C9EC2",
"| 	c #759ABF",
"1 	c #7499BE",
"2 	c #7399BE",
"3 	c #7298BD",
"4 	c #7197BD",
"5 	c #6B92BA",
"6 	c #6A91BA",
"7 	c #6990BA",
"8 	c #6890B9",
"9 	c #678FB9",
"0 	c #6790BA",
"a 	c #5F85AB",
"b 	c #6790B9",
"c 	c #678FB8",
"d 	c #608BB5",
"e 	c #5F8AB4",
"f 	c #5E89B4",
"g 	c #5D88B4",
"h 	c #5C88B3",
"i 	c #5F8CB9",
"j 	c #253546",
"k 	c #39546E",
"l 	c #5F8DBC",
"m 	c #5B87B3",
"n 	c #5783B1",
"o 	c #5683B1",
"p 	c #5582B0",
"q 	c #5481B0",
"r 	c #5380AF",
"s 	c #5280AF",
"t 	c #5484B4",
"u 	c #3C4C5C",
"v 	c #62605F",
"w 	c #2C4055",
"x 	c #507EAC",
"y 	c #517FAE",
"z 	c #4C7CAC",
"A 	c #4B7BAB",
"B 	c #4A7BAB",
"C 	c #497AAA",
"D 	c #4879AA",
"E 	c #4878AA",
"F 	c #4778A9",
"G 	c #4678A9",
"H 	c #487CAF",
"I 	c #374859",
"J 	c #F0EFEE",
"K 	c #BBBBBC",
"L 	c #1F2C37",
"M 	c #477AAE",
"N 	c #4678AA",
"O 	c #4375A8",
"P 	c #4274A7",
"Q 	c #4073A7",
"R 	c #4072A7",
"S 	c #3F72A6",
"T 	c #3E71A6",
"U 	c #3D70A5",
"V 	c #3C6FA5",
"W 	c #3E73AA",
"X 	c #334557",
"Y 	c #EBEAEA",
"Z 	c #FFFFFF",
"` 	c #CECFCF",
" .	c #252C34",
"..	c #346494",
"+.	c #3B70A5",
"@.	c #3B6FA4",
"#.	c #396DA3",
"$.	c #386DA2",
"%.	c #376CA2",
"&.	c #366CA2",
"*.	c #356BA1",
"=.	c #346AA1",
"-.	c #336AA0",
";.	c #3269A0",
">.	c #31689F",
",.	c #326BA5",
"'.	c #2F4256",
").	c #FEFEFE",
"!.	c #E7E7E6",
"~.	c #272D34",
"{.	c #265380",
"].	c #3169A2",
"^.	c #31679F",
"/.	c #30679F",
"(.	c #2F679F",
"_.	c #2E659E",
":.	c #2C649D",
"<.	c #2A639C",
"[.	c #2A629C",
"}.	c #29629C",
"|.	c #28619B",
"1.	c #27619B",
"2.	c #27609B",
"3.	c #2763A0",
"4.	c #2C3F54",
"5.	c #3A3D41",
"6.	c #1E4773",
"7.	c #26619D",
"8.	c #28619C",
"9.	c #255F9A",
"0.	c #245E99",
"a.	c #235D99",
"b.	c #215C98",
"c.	c #205C97",
"d.	c #1F5B97",
"e.	c #1E5A96",
"f.	c #1D5A96",
"g.	c #1C5995",
"h.	c #1C5B9A",
"i.	c #283D52",
"j.	c #FCFCFB",
"k.	c #717375",
"l.	c #082543",
"m.	c #1C5A99",
"n.	c #225D99",
"o.	c #205B97",
"p.	c #1E5A97",
"q.	c #1D5996",
"r.	c #1B5895",
"s.	c #1A5794",
"t.	c #185594",
"u.	c #165593",
"v.	c #155393",
"w.	c #145292",
"x.	c #135192",
"y.	c #125496",
"z.	c #243A51",
"A.	c #EBEBEA",
"B.	c #939392",
"C.	c #123050",
"D.	c #14518F",
"E.	c #1F5A97",
"F.	c #1C5996",
"G.	c #1B5795",
"H.	c #185694",
"I.	c #175493",
"J.	c #135291",
"K.	c #115091",
"L.	c #0F4F8F",
"M.	c #0D4E8F",
"N.	c #0B4C8E",
"O.	c #094D92",
"P.	c #21384F",
"Q.	c #2F2B27",
"R.	c #0A4076",
"S.	c #0F4F90",
"T.	c #ECECEC",
"U.	c #40454B",
"V.	c #063B72",
"W.	c #0E4F91",
"X.	c #DCDCDB",
"Y.	c #232E38",
"Z.	c #104983",
"`.	c #135293",
" +	c #C6C5C4",
".+	c #021223",
"++	c #1A5692",
"@+	c #9C9C9B",
"#+	c #193552",
"$+	c #255D98",
"%+	c #26609B",
"&+	c #265F9B",
"*+	c #FEFDFD",
"=+	c #7A7C7D",
"-+	c #112B45",
";+	c #334658",
">+	c #F6F5F4",
",+	c #444649",
"'+	c #2E547A",
")+	c #3B71A7",
"!+	c #4778AA",
"~+	c #2E3F50",
"{+	c #1F2327",
"]+	c #396189",
"^+	c #4679AB",
"/+	c #4577A8",
"(+	c #5383B3",
"_+	c #2A425A",
":+	c #476F98",
"<+	c #5281B0",
"[+	c #5E8BB8",
"}+	c #5C87B4",
"|+	c #7C9FC2",
". + + + @ # # # # $ $ $ $ $ $ $ $ $ $ $ $ $ $ # # # # @ + + + . ",
"% & & * = = = - ; ; ; ; ; ; ; ; ; ; ; ; ; ; ; ; - = = = * & & % ",
"> > > , , , ' ) ) ) ) ) ! ! ! ! ! ! ! ! ) ) ) ) ) ' , , , > > > ",
"~ ~ ~ { { ] ^ ^ ^ / / / / / / / / / / / / / / ^ ^ ^ ] { { ~ ~ ~ ",
"( ( _ _ : < < < [ [ [ [ [ [ [ } } [ [ [ [ [ [ [ < < < : _ _ ( ( ",
"| | 1 1 2 2 2 3 3 3 3 4 4 4 4 4 4 4 4 4 4 3 3 3 3 2 2 2 1 1 | | ",
"5 5 6 6 7 7 8 8 8 9 9 0 a b c 9 9 9 9 9 9 9 9 8 8 8 7 7 6 6 5 5 ",
"d d e e f f g g h h h i j k l m m m m h h h h h g g f f e e d d ",
"n o p p q r r r s s s t u v w x y y y y y s s s r r r q p p o n ",
"z A A B C D D E F F G H I J K L M N G G G G F F E D D C B A A z ",
"O P Q R S S T U U V V W X Y Z `  ...+.@.V V V U U T S S R Q P O ",
"#.$.%.&.*.=.-.-.;.>.>.,.'.Y ).Z !.~.{.].^.>.>.;.-.-.=.*.&.%.$.#.",
"/.(._.:.:.<.[.}.|.1.2.3.4.Y Z Z Z Z 5.6.7.2.1.|.}.[.<.:.:._.(./.",
"8.1.9.0.a.b.c.d.e.f.g.h.i.Y Z Z ).Z j.k.l.m.f.e.d.c.b.a.0.9.1.8.",
"n.o.p.q.r.s.t.u.v.w.x.y.z.A.Z Z Z Z ).Z B.C.D.v.u.t.s.r.q.p.o.n.",
"E.F.G.H.I.v.J.K.L.M.N.O.P.A.Z Z Z Z ).).Z Q.R.S.K.J.v.I.H.G.F.E.",
"E.F.G.H.I.v.J.K.L.M.N.O.P.A.Z Z Z ).Z T.U.V.W.L.K.J.v.I.H.G.F.E.",
"n.o.p.q.r.s.t.u.v.w.x.y.z.A.Z Z ).Z X.Y.Z.`.w.v.u.t.s.r.q.p.o.n.",
"8.1.9.0.a.b.c.d.e.f.g.h.i.Y Z ).Z  +.+++r.g.f.e.d.c.b.a.0.9.1.8.",
"/.(._.:.:.<.[.}.|.1.2.3.4.Y ).Z @+#+$+%+&+2.1.|.}.[.<.:.:._.(./.",
"#.$.%.&.*.=.-.-.;.>.>.,.'.Y *+=+-+]././.^.>.>.;.-.-.=.*.&.%.$.#.",
"O P Q R S S T U U V V W ;+>+,+'+)+@.@.@.V V V U U T S S R Q P O ",
"z A A B C D D !+F F G H ~+{+]+^+/+G G G G G F F !+D D C B A A z ",
"n o p p q r r r s s s (+_+:+<+y y y y y y s s s r r r q p p o n ",
"d d e e f f g g h h h h [+}+m m m m m m h h h h g g f f e e d d ",
"5 5 6 6 7 7 8 8 8 9 9 9 9 9 9 9 9 9 9 9 9 9 9 8 8 8 7 7 6 6 5 5 ",
"| | 1 1 2 2 2 3 3 3 3 4 4 4 4 4 4 4 4 4 4 3 3 3 3 2 2 2 1 1 | | ",
"( ( _ _ : < < < [ [ [ [ [ [ |+} } |+[ [ [ [ [ [ < < < : _ _ ( ( ",
"~ ~ ~ { { ] ^ ^ ^ / / / / / / / / / / / / / / ^ ^ ^ ] { { ~ ~ ~ ",
"> > > , , , ' ) ) ) ) ) ! ! ! ! ! ! ! ! ) ) ) ) ) ' , , , > > > ",
"% & & * = = = - ; ; ; ; ; ; ; ; ; ; ; ; ; ; ; ; - = = = * & & % ",
". + + + @ # # # # $ $ $ $ $ $ $ $ $ $ $ $ $ $ # # # # @ + + + . "};
